<svg xmlns="http://www.w3.org/2000/svg" viewBox="0 0 64 64" role="img" aria-label="Previsões da Copa">
  <defs>
    <radialGradient id="bg" cx="50%" cy="45%" r="70%">
      <stop offset="0" stop-color="#0b2736"/>
      <stop offset="1" stop-color="#010814"/>
    </radialGradient>
    <linearGradient id="neon" x1="10" y1="12" x2="54" y2="52">
      <stop offset="0" stop-color="#8ee000"/>
      <stop offset="0.55" stop-color="#ffc400"/>
      <stop offset="1" stop-color="#08a9b8"/>
    </linearGradient>
    <filter id="glow" x="-40%" y="-40%" width="180%" height="180%">
      <feGaussianBlur stdDeviation="2.4" result="blur"/>
      <feMerge>
        <feMergeNode in="blur"/>
        <feMergeNode in="SourceGraphic"/>
      </feMerge>
    </filter>
  </defs>

  <rect width="64" height="64" rx="14" fill="url(#bg)"/>
  <path d="M9 14h15M40 14h15M9 50h15M40 50h15" stroke="#8ee000" stroke-width="2" stroke-linecap="round" opacity=".75"/>
  <path d="M14 10h36c2.2 0 4 1.8 4 4v36c0 2.2-1.8 4-4 4H14c-2.2 0-4-1.8-4-4V14c0-2.2 1.8-4 4-4Z" fill="none" stroke="url(#neon)" stroke-width="1.6" opacity=".9"/>

  <g filter="url(#glow)">
    <circle cx="32" cy="31" r="16" fill="#f7f7f2"/>
    <path d="M32 18l8 6-3 10H27l-3-10 8-6Z" fill="#07111b"/>
    <path d="M24 24l-6 5 3 9 7-4-1-9-3-1ZM40 24l6 5-3 9-7-4 1-9 3-1ZM27 34l-5 7 7 5 3-6-5-6ZM37 34l5 7-7 5-3-6 5-6Z" fill="#07111b"/>
    <circle cx="32" cy="31" r="16" fill="none" stroke="#07111b" stroke-width="2"/>
  </g>

  <path d="M18 49c7-3 16-3 28 0" fill="none" stroke="#ffc400" stroke-width="2" stroke-linecap="round" opacity=".9"/>
  <circle cx="51" cy="13" r="3" fill="#8ee000"/>
  <circle cx="56" cy="20" r="1.5" fill="#08a9b8"/>
</svg>
